<!DOCTYPE svg PUBLIC "-//W3C//DTD SVG 1.1//EN" "http://www.w3.org/Graphics/SVG/1.1/DTD/svg11.dtd">
<!-- Uploaded to: SVG Repo, www.svgrepo.com, Transformed by: SVG Repo Mixer Tools -->
<svg height="800px" width="800px" version="1.1" id="Layer_1" xmlns="http://www.w3.org/2000/svg" xmlns:xlink="http://www.w3.org/1999/xlink" viewBox="0 0 512 512" xml:space="preserve" fill="#453a36" stroke="#453a36">
<g id="SVGRepo_bgCarrier" stroke-width="0"/>
<g id="SVGRepo_tracerCarrier" stroke-linecap="round" stroke-linejoin="round"/>
<g id="SVGRepo_iconCarrier"> <g transform="translate(1 1)"> <path style="fill:#d5c1a5;" d="M347.854,133.508H156.071c-81.573,0-148.393,66.82-148.393,148.393v44.258 c0,32.976,26.034,59.01,58.142,59.01h2.603c0-43.39,34.712-78.102,78.102-78.102s78.102,34.712,78.102,78.102h153.6 c15.62,0,28.637-13.017,28.637-28.637V192.519C406.864,159.542,379.963,133.508,347.854,133.508"/> <path style="fill:#bb8168;" d="M63.217,220.288H21.563c-6.942,15.62-12.149,33.844-13.017,52.068h55.539 c6.942,0,13.017-6.075,13.017-13.885v-25.166C77.102,226.363,71.027,220.288,63.217,220.288"/> <g> <path style="fill:#d5c1a5;" d="M406.864,338.308v18.224c0,14.753-11.281,26.902-26.034,27.77l0,0h111.078 c6.075,0,10.414-5.207,10.414-10.414v-6.075c0-5.207-3.471-9.546-8.678-10.414L406.864,338.308z"/> <path style="fill:#d5c1a5;" d="M189.915,385.169c0,24.298-19.092,43.39-43.39,43.39s-43.39-19.092-43.39-43.39 s19.092-43.39,43.39-43.39S189.915,360.871,189.915,385.169"/> </g> <path style="fill:#FFFFFF;" d="M33.712,327.027v-44.258c0-82.441,66.82-149.261,148.393-149.261h-26.034 c-81.573,0-148.393,66.82-148.393,148.393v44.258c0,32.976,26.034,59.01,58.142,59.01h2.603c0-1.736,0-3.471,0-5.207 C48.464,371.285,33.712,350.458,33.712,327.027"/> <path style="fill:#7a5d4c;" d="M347.854,133.508H321.82c32.108,0,59.01,26.034,59.01,59.01v164.014 c0,15.62-13.017,28.637-28.637,28.637h26.034c15.62,0,28.637-13.017,28.637-28.637V192.519 C406.864,159.542,379.963,133.508,347.854,133.508"/> <path style="fill:#a97b62;" d="M354.797,385.169h-86.78V228.098c0-4.339,3.471-7.81,7.81-7.81h71.159c4.339,0,7.81,3.471,7.81,7.81 V385.169z"/> <path style="fill:#bb8168;" d="M210.742,272.356h-77.234c-7.81,0-13.885-6.075-13.885-13.885v-25.166 c0-7.81,6.075-13.885,13.885-13.885h77.234c7.81,0,13.885,6.075,13.885,13.885v25.166 C224.627,266.281,218.553,272.356,210.742,272.356"/> <path d="M491.908,393.847H372.153v-16.488l7.81-0.868c10.414-0.868,18.224-9.546,18.224-19.092v-28.637l97.193,20.827 c8.678,1.736,15.62,9.546,15.62,19.092v6.942C511,385.169,502.322,393.847,491.908,393.847z M410.336,376.492h81.573 c0.868,0,1.736-0.868,1.736-1.736v-6.942c0-0.868-0.868-1.736-1.736-1.736l-76.366-16.488v6.942 C415.542,364.342,413.807,370.417,410.336,376.492z"/> <path d="M320.085,445.915c-5.207,0-8.678-3.471-8.678-8.678v-43.39c0-5.207,3.471-8.678,8.678-8.678s8.678,3.471,8.678,8.678v43.39 C328.763,442.444,325.292,445.915,320.085,445.915z"/> <path d="M346.119,428.559h-26.034c-5.207,0-8.678-3.471-8.678-8.678c0-5.207,3.471-8.678,8.678-8.678h26.034 c5.207,0,8.678,3.471,8.678,8.678C354.797,425.088,351.325,428.559,346.119,428.559z"/> <path d="M294.051,333.102h-26.034c-5.207,0-8.678-3.471-8.678-8.678s3.471-8.678,8.678-8.678h26.034 c5.207,0,8.678,3.471,8.678,8.678S299.258,333.102,294.051,333.102z"/> <path d="M146.525,437.237c-28.637,0-52.068-23.431-52.068-52.068c0-28.637,23.431-52.068,52.068-52.068 s52.068,23.431,52.068,52.068C198.593,413.807,175.163,437.237,146.525,437.237z M146.525,350.458 c-19.092,0-34.712,15.62-34.712,34.712s15.62,34.712,34.712,34.712s34.712-15.62,34.712-34.712S165.617,350.458,146.525,350.458z"/> <path d="M378.227,393.847h-153.6c-5.207,0-8.678-3.471-8.678-8.678c0-38.183-31.241-69.424-69.424-69.424 s-69.424,31.241-69.424,69.424c0,5.207-3.471,8.678-8.678,8.678H65.82c-36.447,0-66.82-30.373-66.82-66.82v-44.258 c0-87.647,70.292-157.939,157.071-157.939h191.783c37.315,0,67.688,30.373,67.688,67.688v164.014 C415.542,377.359,399.054,393.847,378.227,393.847z M232.437,376.492h145.79c11.281,0,19.959-8.678,19.959-19.959V192.519 c0-27.769-22.563-50.332-50.332-50.332H156.071c-77.234,0-139.715,62.481-139.715,139.715v44.258 c0,25.166,19.092,46.861,44.258,49.464c4.339-43.39,41.654-78.102,85.912-78.102C191.651,298.39,228.098,333.102,232.437,376.492z"/> <path d="M163.881,385.169c0,9.546-7.81,17.356-17.356,17.356c-9.546,0-17.356-7.81-17.356-17.356s7.81-17.356,17.356-17.356 C156.071,367.814,163.881,375.624,163.881,385.169"/> <path d="M363.475,393.847H259.339V228.098c0-8.678,7.81-16.488,16.488-16.488h71.159c8.678,0,16.488,7.81,16.488,16.488V393.847z M276.695,376.492h69.424V228.966h-69.424V376.492z"/> <path d="M210.742,281.034h-77.234c-12.149,0-22.563-9.546-22.563-22.563v-25.166c0-12.149,9.546-22.563,22.563-22.563h77.234 c12.149,0,22.563,9.546,22.563,22.563v25.166C233.305,271.488,223.759,281.034,210.742,281.034z M134.376,228.966 c-2.603,0-5.207,2.603-5.207,5.207v25.166c0,2.603,2.603,5.207,5.207,5.207h77.234c2.603,0,5.207-2.603,5.207-5.207v-25.166 c0-2.603-2.603-5.207-5.207-5.207H134.376z"/> <path d="M320.085,263.678h-17.356c-5.207,0-8.678-3.471-8.678-8.678s3.471-8.678,8.678-8.678h17.356 c5.207,0,8.678,3.471,8.678,8.678S325.292,263.678,320.085,263.678z"/> <path d="M320.085,298.39h-17.356c-5.207,0-8.678-3.471-8.678-8.678c0-5.207,3.471-8.678,8.678-8.678h17.356 c5.207,0,8.678,3.471,8.678,8.678C328.763,294.919,325.292,298.39,320.085,298.39z"/> <path d="M146.525,142.186c-5.207,0-8.678-3.471-8.678-8.678V72.763c0-5.207,3.471-8.678,8.678-8.678s8.678,3.471,8.678,8.678 v60.746C155.203,138.715,151.732,142.186,146.525,142.186z"/> <path d="M320.085,142.186c-5.207,0-8.678-3.471-8.678-8.678V72.763c0-5.207,3.471-8.678,8.678-8.678s8.678,3.471,8.678,8.678 v60.746C328.763,138.715,325.292,142.186,320.085,142.186z"/> <path d="M354.797,107.475H111.814c-5.207,0-8.678-3.471-8.678-8.678s3.471-8.678,8.678-8.678h242.983 c5.207,0,8.678,3.471,8.678,8.678S360.003,107.475,354.797,107.475z"/> <path d="M328.763,185.576H146.525c-5.207,0-8.678-3.471-8.678-8.678c0-5.207,3.471-8.678,8.678-8.678h182.237 c5.207,0,8.678,3.471,8.678,8.678C337.441,182.105,333.969,185.576,328.763,185.576z"/> <path d="M63.217,281.034H-1l0.868-9.546c0.868-19.092,6.075-38.183,13.885-55.539l1.736-4.339h47.729 c13.017,0,22.563,9.546,22.563,22.563v25.166C85.78,271.488,76.234,281.034,63.217,281.034z M18.092,263.678h45.993 c1.736,0,4.339-2.603,4.339-5.207v-25.166c0-1.736-2.603-4.339-5.207-4.339H26.769C22.431,240.247,18.959,251.529,18.092,263.678z"/> </g> </g>
</svg>